<svg width="91" height="122" viewBox="0 0 91 122" fill="none" xmlns="http://www.w3.org/2000/svg">
<path d="M48.5 64.3438C48.5 61.128 49.7775 58.044 52.0513 55.7701C54.3252 53.4962 57.4092 52.2188 60.625 52.2188H84.875C85.6789 52.2188 86.45 52.5381 87.0184 53.1066C87.5869 53.6751 87.9062 54.4461 87.9062 55.25V103.75C87.9062 104.554 87.5869 105.325 87.0184 105.893C86.45 106.462 85.6789 106.781 84.875 106.781H60.625C57.4092 106.781 54.3252 108.059 52.0513 110.333C49.7775 112.606 48.5 115.69 48.5 118.906" stroke="#FF5E14" stroke-width="6" stroke-linecap="round" stroke-linejoin="round"/>
<path d="M9.09375 103.75C9.09375 104.554 9.41311 105.325 9.98158 105.893C10.5501 106.462 11.3211 106.781 12.125 106.781H36.375C39.5908 106.781 42.6748 108.059 44.9487 110.333C47.2225 112.606 48.5 115.69 48.5 118.906V64.3438C48.5 61.128 47.2225 58.044 44.9487 55.7701C42.6748 53.4962 39.5908 52.2188 36.375 52.2188H12.125C11.3211 52.2188 10.5501 52.5381 9.98158 53.1066C9.41311 53.6751 9.09375 54.4461 9.09375 55.25V103.75Z" stroke="#FF5E14" stroke-width="6" stroke-linecap="round" stroke-linejoin="round"/>
</svg>
